<?xml version="1.0" encoding="UTF-8"?>
<svg xmlns="http://www.w3.org/2000/svg" width="880" height="390" viewBox="0 0 880 390" role="img" aria-label="Custom GitHub profile card">
  <defs>
    <linearGradient id="bg" x1="0" y1="0" x2="1" y2="1">
      <stop offset="0%" stop-color="#0d1117"/>
      <stop offset="100%" stop-color="#161b22"/>
    </linearGradient>
    <linearGradient id="ring" x1="0" y1="0" x2="1" y2="1">
      <stop offset="0%" stop-color="#58a6ff"/>
      <stop offset="100%" stop-color="#f778ba"/>
    </linearGradient>
    <style>
      text { font-family: "Segoe UI", Ubuntu, Sans-Serif; }
    </style>
  </defs>

  <rect x="8" y="8" width="864" height="374" rx="14" fill="url(#bg)" stroke="#30363d" stroke-width="2"/>
  <image href="https://avatars.githubusercontent.com/u/40855834?s=72&amp;u=76e1348aeac89d882659296a5a126f89006f5255&amp;v=4" x="34" y="28" width="44" height="44" clip-path="inset(0 round 22px)" />
  <text x="90" y="58" fill="#58a6ff" font-size="38" font-weight="700">shingo</text>
  <text x="60" y="104" fill="#8b949e" font-size="22">Followers 8   •   Contributed repos 0</text>

  <text x="60" y="148" fill="#7ee787" font-size="30" font-weight="700">Activity</text>
  <text x="60" y="182" fill="#c9d1d9" font-size="24">Commits: 44</text>
  <text x="60" y="212" fill="#c9d1d9" font-size="24">Pull Requests: 44</text>
  <text x="60" y="242" fill="#c9d1d9" font-size="24">Issues: 15</text>
  <text x="450" y="182" fill="#c9d1d9" font-size="24">Repositories: 36</text>
  <text x="450" y="212" fill="#c9d1d9" font-size="24">Stars: 9</text>

  <text x="640" y="148" fill="#79c0ff" font-size="28" font-weight="700">Rank</text>
  <circle cx="720" cy="208" r="56" fill="none" stroke="#30363d" stroke-width="12" />
  <circle
    cx="720"
    cy="208"
    r="56"
    fill="none"
    stroke="url(#ring)"
    stroke-width="12"
    stroke-linecap="round"
    transform="rotate(-90 720 208)"
    stroke-dasharray="351.86"
    stroke-dashoffset="38.07"
  />
  <text x="720" y="214" fill="#a5f3fc" font-size="34" text-anchor="middle" font-weight="700">A+</text>
  <text x="720" y="240" fill="#8b949e" font-size="14" text-anchor="middle">score 89.2</text>

  <text x="60" y="265" fill="#58a6ff" font-size="26" font-weight="700">Top Languages</text>
  <rect x="60" y="280" width="760" height="12" fill="#21262d" rx="6" ry="6"/>
  <rect x="60.00" y="280" width="562.67" height="12" fill="#178600" rx="2" ry="2" /><rect x="622.67" y="280" width="126.20" height="12" fill="#222c37" rx="2" ry="2" /><rect x="748.87" y="280" width="19.78" height="12" fill="#aace60" rx="2" ry="2" /><rect x="768.65" y="280" width="19.64" height="12" fill="#5686a5" rx="2" ry="2" /><rect x="788.29" y="280" width="10.30" height="12" fill="#3178c6" rx="2" ry="2" /><rect x="798.59" y="280" width="5.04" height="12" fill="#f34b7d" rx="2" ry="2" />
  
      <circle cx="60" cy="320" r="5" fill="#178600" />
      <text x="74" y="325" fill="#c9d1d9" font-size="18">C#</text>
      <text x="230" y="325" fill="#8b949e" font-size="16">17.4 MB</text>
      <text x="330" y="325" fill="#8b949e" font-size="16">74.04%</text>
      
      <circle cx="450" cy="320" r="5" fill="#222c37" />
      <text x="464" y="325" fill="#c9d1d9" font-size="18">ShaderLab</text>
      <text x="620" y="325" fill="#8b949e" font-size="16">3.9 MB</text>
      <text x="720" y="325" fill="#8b949e" font-size="16">16.61%</text>
      
      <circle cx="60" cy="342" r="5" fill="#aace60" />
      <text x="74" y="347" fill="#c9d1d9" font-size="18">HLSL</text>
      <text x="230" y="347" fill="#8b949e" font-size="16">0.6 MB</text>
      <text x="330" y="347" fill="#8b949e" font-size="16">2.60%</text>
      
      <circle cx="450" cy="342" r="5" fill="#5686a5" />
      <text x="464" y="347" fill="#c9d1d9" font-size="18">GLSL</text>
      <text x="620" y="347" fill="#8b949e" font-size="16">0.6 MB</text>
      <text x="720" y="347" fill="#8b949e" font-size="16">2.58%</text>
      
      <circle cx="60" cy="364" r="5" fill="#3178c6" />
      <text x="74" y="369" fill="#c9d1d9" font-size="18">TypeScript</text>
      <text x="230" y="369" fill="#8b949e" font-size="16">0.3 MB</text>
      <text x="330" y="369" fill="#8b949e" font-size="16">1.35%</text>
      
      <circle cx="450" cy="364" r="5" fill="#f34b7d" />
      <text x="464" y="369" fill="#c9d1d9" font-size="18">C++</text>
      <text x="620" y="369" fill="#8b949e" font-size="16">0.2 MB</text>
      <text x="720" y="369" fill="#8b949e" font-size="16">0.66%</text>
      

  <text x="820" y="372" fill="#6e7681" font-size="12" text-anchor="end">Updated 2026-03-27</text>
</svg>